<svg xmlns="http://www.w3.org/2000/svg" width="25.331" height="15.88" viewBox="0 0 25.331 15.88">
  <path id="Icon_awesome-behance" data-name="Icon awesome-behance" d="M10.2,12.417a3.337,3.337,0,0,0,2.128-3.254c0-3.1-2.313-3.861-4.983-3.861H0V20.887H7.555c2.832,0,5.493-1.359,5.493-4.525A3.755,3.755,0,0,0,10.2,12.417ZM3.426,7.962H6.64c1.236,0,2.348.347,2.348,1.781,0,1.324-.866,1.856-2.089,1.856H3.426V7.962ZM7.089,18.239H3.426V13.947H7.159c1.508,0,2.463.629,2.463,2.225C9.622,17.747,8.483,18.239,7.089,18.239ZM22.855,7.654H16.535V6.12h6.319Zm2.476,7.753c0-3.338-1.953-6.122-5.493-6.122a5.671,5.671,0,0,0-5.774,5.972c0,3.514,2.212,5.924,5.774,5.924a5.031,5.031,0,0,0,5.282-3.8H22.384a2.568,2.568,0,0,1-2.449,1.473,2.552,2.552,0,0,1-2.771-2.872H25.3C25.317,15.8,25.331,15.605,25.331,15.407Zm-8.162-1.372a2.422,2.422,0,0,1,2.573-2.41,2.31,2.31,0,0,1,2.471,2.41Z" transform="translate(0 -5.302)" fill="#162449"/>
</svg>
