<svg xmlns="http://www.w3.org/2000/svg" width="18.353" height="18.353" viewBox="0 0 18.353 18.353">
  <path id="Icon_zocial-dribbble" data-name="Icon zocial-dribbble" d="M0,9.177A8.989,8.989,0,0,1,1.23,4.57,9.112,9.112,0,0,1,4.57,1.23,8.99,8.99,0,0,1,9.177,0a8.989,8.989,0,0,1,4.607,1.23,9.112,9.112,0,0,1,3.34,3.34,8.989,8.989,0,0,1,1.23,4.607,8.989,8.989,0,0,1-1.23,4.607,9.112,9.112,0,0,1-3.34,3.34,8.99,8.99,0,0,1-4.607,1.23,8.99,8.99,0,0,1-4.607-1.23,9.112,9.112,0,0,1-3.34-3.34A8.989,8.989,0,0,1,0,9.177Zm1.523,0A7.4,7.4,0,0,0,3.45,14.224a10.5,10.5,0,0,1,2.79-3.285A9.124,9.124,0,0,1,9.966,8.975q-.275-.642-.532-1.156A22.3,22.3,0,0,1,2.606,8.828q-.716,0-1.064-.018,0,.073-.009.184t-.009.184Zm.239-1.89q.4.037,1.193.037A20.143,20.143,0,0,0,8.773,6.5a18.585,18.585,0,0,0-3.065-4.13A7.45,7.45,0,0,0,3.221,4.4,7.835,7.835,0,0,0,1.762,7.286ZM4.5,15.215a7.5,7.5,0,0,0,7.378,1.1,26.95,26.95,0,0,0-1.432-6.075,7.827,7.827,0,0,0-3.4,1.854A10.411,10.411,0,0,0,4.5,15.215ZM7.3,1.78A19.5,19.5,0,0,1,10.3,5.946a9.14,9.14,0,0,0,3.762-2.661A7.44,7.44,0,0,0,9.177,1.523,7.044,7.044,0,0,0,7.3,1.78ZM10.957,7.25q.275.587.624,1.487,1.358-.128,2.955-.128,1.138,0,2.257.055a7.368,7.368,0,0,0-1.8-4.442A9.081,9.081,0,0,1,10.957,7.25Zm1.083,2.771A26.343,26.343,0,0,1,13.306,15.6a7.658,7.658,0,0,0,2.368-2.4,7.413,7.413,0,0,0,1.1-3.175q-1.34-.092-2.441-.092Q13.325,9.929,12.04,10.021Z" fill="#162449"/>
</svg>
