<svg xmlns="http://www.w3.org/2000/svg" width="19.819" height="19.814" viewBox="0 0 19.819 19.814">
  <path id="Icon_awesome-instagram" data-name="Icon awesome-instagram" d="M9.906,7.065a5.08,5.08,0,1,0,5.08,5.08A5.072,5.072,0,0,0,9.906,7.065Zm0,8.383a3.3,3.3,0,1,1,3.3-3.3,3.309,3.309,0,0,1-3.3,3.3Zm6.473-8.591a1.185,1.185,0,1,1-1.185-1.185A1.182,1.182,0,0,1,16.379,6.857Zm3.365,1.2a5.864,5.864,0,0,0-1.6-4.152,5.9,5.9,0,0,0-4.152-1.6c-1.636-.093-6.539-.093-8.175,0A5.894,5.894,0,0,0,1.665,3.9a5.883,5.883,0,0,0-1.6,4.152c-.093,1.636-.093,6.539,0,8.175a5.864,5.864,0,0,0,1.6,4.152,5.91,5.91,0,0,0,4.152,1.6c1.636.093,6.539.093,8.175,0a5.864,5.864,0,0,0,4.152-1.6,5.9,5.9,0,0,0,1.6-4.152c.093-1.636.093-6.535,0-8.171ZM17.63,17.985a3.344,3.344,0,0,1-1.883,1.883c-1.3.517-4.4.4-5.841.4s-4.541.115-5.841-.4a3.344,3.344,0,0,1-1.883-1.883c-.517-1.3-.4-4.4-.4-5.841S1.669,7.6,2.182,6.3A3.344,3.344,0,0,1,4.066,4.421c1.3-.517,4.4-.4,5.841-.4s4.541-.115,5.841.4A3.344,3.344,0,0,1,17.63,6.3c.517,1.3.4,4.4.4,5.841S18.148,16.685,17.63,17.985Z" transform="translate(0.005 -2.238)" fill="#162449"/>
</svg>
