<svg xmlns="http://www.w3.org/2000/svg" width="18.354" height="18.353" viewBox="0 0 18.354 18.353">
  <path id="Icon_awesome-linkedin-in" data-name="Icon awesome-linkedin-in" d="M4.108,18.354H.3V6.1H4.108ZM2.2,4.429A2.214,2.214,0,1,1,4.407,2.2,2.222,2.222,0,0,1,2.2,4.429ZM18.35,18.354h-3.8V12.389c0-1.422-.029-3.245-1.978-3.245-1.978,0-2.282,1.544-2.282,3.142v6.067h-3.8V6.1h3.649V7.772h.053a4,4,0,0,1,3.6-1.979c3.851,0,4.559,2.536,4.559,5.83v6.731Z" transform="translate(0 -0.001)" fill="#162449"/>
</svg>
