<svg xmlns="http://www.w3.org/2000/svg" width="21.648" height="21.648" viewBox="0 0 21.648 21.648">
  <path id="Icon_ionic-logo-whatsapp" data-name="Icon ionic-logo-whatsapp" d="M13.27,2.25A10.587,10.587,0,0,0,2.643,12.8a10.436,10.436,0,0,0,1.525,5.445L2.25,23.9l5.884-1.869A10.645,10.645,0,0,0,23.9,12.8,10.587,10.587,0,0,0,13.27,2.25ZM18.555,16.8a2.745,2.745,0,0,1-1.88,1.212c-.5.026-.513.386-3.23-.794a11.088,11.088,0,0,1-4.48-4.236,5.212,5.212,0,0,1-1-2.825A3.011,3.011,0,0,1,9,7.947a1.041,1.041,0,0,1,.736-.31c.214,0,.353-.006.511,0s.4-.033.6.514.7,1.892.761,2.029a.492.492,0,0,1,0,.472,1.846,1.846,0,0,1-.288.439c-.142.152-.3.34-.425.457s-.288.269-.14.545a8.132,8.132,0,0,0,1.439,1.92,7.415,7.415,0,0,0,2.131,1.417c.266.145.426.129.591-.045s.707-.761.9-1.023.37-.211.616-.113,1.554.8,1.82.945.444.219.508.333A2.232,2.232,0,0,1,18.555,16.8Z" transform="translate(-2.25 -2.25)" fill="#162449"/>
</svg>
