<svg xmlns="http://www.w3.org/2000/svg" width="25.36" height="17.724" viewBox="0 0 25.36 17.724">
  <path id="Icon_simple-youtube" data-name="Icon simple-youtube" d="M24.838,8.161a3.179,3.179,0,0,0-2.207-2.207c-1.977-.53-9.932-.53-9.932-.53s-7.935-.011-9.932.53A3.179,3.179,0,0,0,.559,8.161,33.03,33.03,0,0,0,.007,14.3,33.03,33.03,0,0,0,.559,20.41a3.179,3.179,0,0,0,2.207,2.207c1.975.531,9.932.531,9.932.531s7.934,0,9.932-.531a3.179,3.179,0,0,0,2.207-2.207,33.03,33.03,0,0,0,.529-6.113,33.03,33.03,0,0,0-.529-6.136ZM10.159,18.093v-7.6L16.781,14.3Z" transform="translate(-0.007 -5.424)" fill="#162449"/>
</svg>
